<?xml version="1.0" encoding="UTF-8"?>
<svg id="Capa_1" data-name="Capa 1" xmlns="http://www.w3.org/2000/svg" viewBox="0 0 868.4 392.73">
  <defs>
    <style>
      .cls-1 {
        fill: #213b5e;
      }

      .cls-2 {
        fill: #f3f3f3;
      }

      .cls-3 {
        fill: #4c79bc;
      }

      .cls-4 {
        fill: #3c6fb6;
      }

      .cls-5 {
        fill: #284773;
      }
    </style>
  </defs>
  <g>
    <path class="cls-4" d="M753.4,91.17c-1.74.71-3.65,1.86-4.37,2.91-20.81-21.6-48.13-37.35-78.11-43.32-1.36-.27-3.53.22-4.13.87-.44.47-.1,1.92-.33,2.8-58.1-10.91-112.59,13.49-146.16,61.05l-9.25-5.78c14.65-20.95,33.52-38.07,55.93-50.17,61.91-33.44,139.01-19.89,186.42,31.63Z"/>
    <path class="cls-3" d="M559.28,192.5l-17.9-.69c4.1-51.58,40.48-94.18,92.39-103.12l3.37,16.9c-42,7.93-74.29,43.15-77.86,86.91Z"/>
    <path class="cls-4" d="M746.69,299.67c1.52,1.38,2.48,2.61,3.38,3.91-.09,2.94-2.87,4-4.89,5.88-27.97,25.99-57.31,36.51-95.48,38.51-1.58.08-1.49,3.52-1.37,4.14-48.74-.25-91.37-24.73-120.15-63.91,2.4-3.16,5.06-5.03,8.91-6.39,13.73,20.33,32.52,35.65,54.51,46.51,12.54,6.19,25.26,9.71,39.34,11.85,43.18,6.54,85.37-9.71,115.75-40.5Z"/>
    <path class="cls-3" d="M758.97,152.16c4.6,8.07,7,17.34,9.86,26.75l4.48-.29c5.72,30.96-.04,62.32-17.36,88.88-.61.94-2.56-.84-2.85-1.61-1.23-3.27,14.94-22.12,17.09-52.81.14-1.99-3.26-2-4.4-2.01l-10.92-.04c-1.89,0-2.79-.68-3.32-1.77l.22-2.16c2.02-3.5.97-9.4.16-14.15l-1.02-5.92c1.14-.09.79-1.21-.1-1-.95-9.71-4.77-19.07-9.17-27.83-.08-1.13.09-2.98,1.43-3.68l11.66-6.09,4.25,3.74Z"/>
    <path class="cls-5" d="M718.63,104.39l7.27,6.53c7.94,5.68,13.55,12.78,19.49,19.66l-10.67,9.54c-1.11.97-2.07,1.57-2.22,3.16-9.61-12.58-21.69-22.59-35.82-30.39l7.34-16.28c3.3,1.86,7.15,2.97,10.29,5.97,1.25,1.19,3.2,1.39,4.32,1.82Z"/>
    <path class="cls-5" d="M695.58,306.2c.15-5.82-3.83-11.04-3.91-17.18,14.09-5.66,27.25-15.43,36.9-27.55l13.21,11.15c-12.34,15.55-28.36,26.21-46.2,33.59Z"/>
    <path class="cls-5" d="M601.29,279.58l-9.86,12.74c-13.9-8.96-24.93-21.13-33.66-35.7l14.47-8.48c7.51,12.91,16.79,23.85,29.05,31.44Z"/>
    <path class="cls-4" d="M718.63,104.39c-1.12-.43-3.07-.63-4.32-1.82-3.14-3-6.99-4.1-10.29-5.97-33.73-19.06-78.52-18.75-112.64,1.97-1.2,0-2.7-1.86-2.7-3.72,18.18-11.65,45.9-18.62,67.2-16.96,23.49,1.83,45.85,8.99,64.53,23.22.17,1.15-1.02,2.73-1.78,3.28Z"/>
    <path class="cls-5" d="M770.92,286.57c-27.37,40.83-72.73,65.8-122.58,65.54-.13-.62-.22-4.06,1.37-4.14,38.17-2,67.51-12.52,95.48-38.51,2.02-1.88,4.8-2.94,4.89-5.88l9.86-11.36c2.32-2.67,3.37-6.4,6.68-8.16,1.47.98,3,1.87,4.31,2.51Z"/>
    <path class="cls-1" d="M743.49,96.01c2.59.54,4.82.4,5.54-1.93.72-1.05,2.63-2.2,4.37-2.91,11.29,12.27,20.52,25.01,27.64,40.98-1.66,3.63-3.54,6.86-6.46,10.33-8.17-17.52-17.84-32.95-31.09-46.47Z"/>
    <path class="cls-4" d="M638.95,57.76l-.55,9.69c-15.65.26-30.53,3.52-45.53,9.14l-3.33-9.02c15.83-5.87,32.33-9.99,49.41-9.81Z"/>
    <path class="cls-3" d="M598.78,325.47c-14.6-5.98-26.89-14.85-38.43-25.1,1.75-3.25,3.77-5.28,6.54-7.23,10.45,10.03,22.22,17.45,35.53,23.41-.49,2.96-1.33,5.37-3.64,8.92Z"/>
    <path class="cls-5" d="M749.03,94.08c-.72,2.33-2.95,2.48-5.54,1.93-21.02-21.44-47.38-36.01-77.03-41.58.23-.88-.11-2.33.33-2.8.6-.65,2.78-1.14,4.13-.87,29.97,5.96,57.29,21.71,78.11,43.32Z"/>
    <path class="cls-4" d="M615.25,314.43c-25.25-8.78-46.87-25.31-62.15-47.33-.18-1.08,2.4-2.85,3.69-2.76,14.79,21.84,36.14,37.8,61.4,46.28,1.35.45.8,2.66.11,3.42-.57.62-1.46.95-3.05.39Z"/>
    <path class="cls-3" d="M691.67,289.02c.08,6.15,4.06,11.36,3.91,17.18-6.11,2.53-11.85,4.53-18.57,5.48l-3.35-16.92,18.01-5.74Z"/>
    <path class="cls-4" d="M758.97,152.16l-4.25-3.74-11.66,6.09c-1.34.7-1.51,2.55-1.43,3.68-2.62-5.22-5.61-10.3-9.14-14.91.15-1.59,1.11-2.19,2.22-3.16l10.67-9.54c5.45,6.32,10.21,13.59,13.59,21.59Z"/>
    <path class="cls-4" d="M552.04,137.74c-1.06,1.78-1.76,2.97-3.64,2.47-1.41-.37-2.74-1.6-1.78-3.11,8.43-13.18,17.77-24.65,30.07-34.07,1.12-.86,1.95-2.17,3.34-1.9,1.02.19,3.21,2.58,2.15,3.42-11.85,9.4-22.16,19.8-30.14,33.19Z"/>
    <path class="cls-4" d="M765.79,211.07c-1.08,1.38-1.36,3.26-1.75,5.37l-2.39,12.91c-4.74-.45-9.02-1.71-12.97-4.02,2.13-5.77,2.34-10.88,2.87-16.07.53,1.1,1.43,1.77,3.32,1.77l10.92.04Z"/>
    <path class="cls-1" d="M638.4,67.45l.55-9.69c8.58.09,16.76-.44,24.8,2.18.24,3.6-.37,6.7-1.75,9.58-8.25-1.86-15.72-2.2-23.59-2.08Z"/>
    <path class="cls-1" d="M770.92,286.57c-1.3-.64-2.83-1.53-4.31-2.51-3.3,1.76-4.36,5.49-6.68,8.16l-9.86,11.36c-.9-1.3-1.85-2.54-3.38-3.91,8.47-8.58,14.75-18.25,21.73-28.39,2.6,3.13,4.93,5.8,5.76,8.88.58,2.17-2.1,4.66-3.27,6.41Z"/>
    <path class="cls-4" d="M591.43,292.31l9.86-12.74,10.35,6.41-7.2,13.84c-4.76-1.75-8.6-4.67-13.02-7.51Z"/>
    <polygon class="cls-1" points="755.26 246.28 743.64 240.94 747.93 229.06 760.87 231.43 755.26 246.28"/>
    <polygon class="cls-5" points="693.72 109.98 680.06 104.47 682.98 93.4 698.48 99.37 693.72 109.98"/>
    <path class="cls-4" d="M691.44,38.05l-12.51-3.47c.1-4.31,1.39-8.25,2.78-12.37l12.86,4.31c-.24,3.94-1.65,6.77-3.12,11.53Z"/>
    <path class="cls-5" d="M677.24,102.81c-4.94.67-9.26-1.4-14.3-1.78-.22-3.85-.19-7.32.87-11.03,5.33-.7,9.85,1.11,15.63,2.1l-2.2,10.72Z"/>
    <path class="cls-1" d="M558.74,348.27c-5.61-1.94-9.38-5.87-13.31-10.18,1.38-2.9,2.73-5.36,5.38-7.26l13.01,9.11c-1.27,3.08-2.63,5.15-5.07,8.33Z"/>
    <path class="cls-1" d="M810.39,101.79c-2.63,3.19-4.97,5-8.41,6.33-3.24-3.72-5.57-7.48-7.61-11.91,2.46-3.16,5.48-5.45,9.01-6.38l4.47,6.26c.9,1.26-.07,3.72,2.54,5.7Z"/>
    <path class="cls-4" d="M782.81,330.54c2.28,1.88,1.92,3.41.75,4.78-1.71,1.99-3.26,1.79-4.87.15s-.38-3.98,1.51-5.47c-1.08-3.21-3.72-4.26-5.51-6.73l7.67-8.46,7.4,6.1-6.95,9.62Z"/>
    <path class="cls-4" d="M702.06,83.05c-5.1-2.41-9.09-4.82-14.15-5.84l3.77-9.55,14.06,6.01c-.57,3.09-1.72,6.09-3.68,9.38Z"/>
    <path class="cls-4" d="M761.66,60.97c-3.59-1.63-5.75-4.46-8.91-7.01l7.02-9.37,8.95,6.98-7.06,9.39Z"/>
    <path class="cls-4" d="M538.87,117.83c-3.08.38-6.41-3.58-8.19-5.53,2.07-3.95,4.87-6.59,8.26-9.51,2.99,1.71,4.7,3.83,7.33,6.72-2.22,2.39-4.16,6.3-7.41,8.32Z"/>
    <polygon class="cls-4" points="564.04 93.86 554.13 101.09 547.58 93.93 557.7 85.6 564.04 93.86"/>
    <path class="cls-5" d="M635.09,374.57c-3.81.04-7.47-.5-11.29-1.42l1.65-11.31,10.15,1.23-.51,11.5Z"/>
    <path class="cls-4" d="M734.77,350.21c-2.93,2.6-6.14,4.59-9.93,6.04-2.29-2.96-3.92-5.64-5.13-9.21l10.18-5.36,4.88,8.53Z"/>
    <rect class="cls-1" x="586.02" y="352.6" width="10.59" height="12.92" transform="translate(36.52 772.32) rotate(-67.95)"/>
    <path class="cls-5" d="M668.39,31.75l-10.11-1.24c-.55-4-.28-7.79,1.25-11.37l10.03,1.2-1.17,11.41Z"/>
    <path class="cls-4" d="M632.13,334.37c-4.16,1.1-8.2-.06-12.04-1.47.12-3.64.98-6.3,2.1-9.76l10.48,2.08-.55,9.15Z"/>
    <path class="cls-4" d="M748.82,290.32c-3.47-1.78-5.95-4.15-8.13-7.15l6.13-7.38,8.36,6.23-6.36,8.3Z"/>
    <path class="cls-4" d="M666.82,335.42l-11.51.87-.67-9.55c3.45-1.19,6.95-1.38,10.88-1.35l1.29,10.03Z"/>
    <path class="cls-4" d="M802.99,308.55l-9.23-6.77c.47-3.03,2.15-5.34,4.18-7.92l9.84,5.75-4.79,8.94Z"/>
    <path class="cls-5" d="M619.47,372.1c-3.85-.34-7.4-1.18-10.85-2.76l2.09-9.22,10.69,1.64-1.93,10.34Z"/>
    <path class="cls-5" d="M785.09,304.37c-3.6-1.2-5.44-3.75-7.63-6.37l5.48-8.67c2.35,1.32,6.92,2.98,7.56,5.78.14,3.26-3.22,6.29-5.42,9.27Z"/>
    <path class="cls-4" d="M671.37,320.96c-2.18.48-4.09.05-4.74-.93-.5-.76-.82-3.2.44-3.44l19.51-3.67c1.15.6,1.81,4.3.81,4.52l-16.02,3.53Z"/>
    <path class="cls-4" d="M736.4,109.93l-7.61-7.86c1.82-2.44,3.34-4.57,5.91-6.35,3.74,1.36,6.53,3.99,8.43,7.24-2.06,2.71-3.67,4.47-6.74,6.97Z"/>
    <path class="cls-1" d="M520.23,334.54c.4,2.35-3.73,5.79-6.36,6.63l-6.59-7.71c-1.54-1.8,2.97-6.12,5.48-6.6,2.55,2.22,5.31,4.19,7.46,7.68Z"/>
    <path class="cls-4" d="M733.06,305.43l-6.37-7.51,7.14-6.82,6.91,6.91c-2.12,2.87-4.3,4.95-7.67,7.42Z"/>
    <path class="cls-1" d="M797.9,112.74c-2.76,2.44-5.24,3.46-8.54,5.14-1.51-1.86-4.65-4.85-4.4-8,.2-2.59,5.07-5.02,7.36-5.78,2.67,2.55,3.6,5.14,5.59,8.64Z"/>
    <path class="cls-4" d="M707.03,322.65l-4.13-8.72c2.35-2.05,4.82-3.36,7.82-4.61,2.31,2.65,4.29,5.16,5.43,8.79l-9.13,4.54Z"/>
    <path class="cls-1" d="M558.13,285c.05,2.89-4.85,5.08-7.12,6.36l-6.51-7.51,8.27-6.09c1.81,1.97,4.76,4.31,5.37,7.25Z"/>
    <path class="cls-1" d="M703.88,324.1c-2.74,2.09-5.6,3.12-9.35,3.94-1.06-2.46-2.73-6.04-2.36-9,.87-1.88,6.14-3.71,8.04-2.64,2.49,1.39,2.94,5.14,3.68,7.7Z"/>
    <path class="cls-5" d="M688.86,390.56l-9.79,2.17-1.31-8.51c3.11-1.57,6.28-2.27,9.66-2.08,1.01,2.79,1.38,5,1.43,8.41Z"/>
    <rect class="cls-5" x="634" y="-.79" width="8.84" height="10.47" transform="translate(630.2 642.83) rotate(-89.66)"/>
    <rect class="cls-5" x="647.96" y="365.47" width="9.57" height="9.49" transform="translate(-5.75 10.32) rotate(-.9)"/>
    <path class="cls-1" d="M681.84,370.65c-1.51-2.37-1.91-4.71-1.95-7.59l10.59-2.69c1.23,2.52,1.59,4.77,1.59,7.91l-10.23,2.38Z"/>
    <path class="cls-4" d="M747.81,42.19c-3.48-1.69-6.12-4.45-10.03-5.53.74-1.93,1.42-5.42,3.76-6.48,2.87,1.6,7.01,2.72,8.74,5.33,1.51,2.28-2,4.97-2.48,6.68Z"/>
    <rect class="cls-5" x="589.94" y="26.03" width="9.63" height="9.3" transform="translate(10.53 146.24) rotate(-14.14)"/>
    <path class="cls-1" d="M590.71,14.61l-9.23,2.72c-1.38-2.26-1.89-4.5-2.8-7.54l9.25-2.87c1.51,2.21,2.21,4.39,2.78,7.7Z"/>
    <path class="cls-5" d="M508.77,89.02l-7.15-5.86,6.25-6.48c2.54,1.29,4.37,3.25,6.26,5.62-1.21,2.63-3.03,3.98-5.35,6.71Z"/>
    <path class="cls-1" d="M617.68,384.82c-1.41,1.05-6.2-.02-7.25-1.41-1.16-1.54-.67-6.51.91-7.59,2.09-1.43,5.79-.16,8.07.78-.04,2.3.02,6.07-1.73,8.23Z"/>
    <path class="cls-5" d="M721.25,28.6c-3.9-.88-6.27-2.06-9.28-3.84.73-2.71,1.8-5.55,4.24-7.42.97-.75,4.58.12,4.98,1.28,1.04,2.99.85,6.05.06,9.98Z"/>
    <path class="cls-1" d="M564.42,46.14c-.24,1.77-4.57,4.05-6.23,3.38-2.45-.98-3.53-4.73-4.11-6.87l6.91-3.68c1.67,1.47,3.8,4.57,3.44,7.17Z"/>
    <path class="cls-5" d="M630.79,27.91c-3.4.71-6.23,1.04-9.43.73l-.5-7.1,9.27-.9.66,7.27Z"/>
    <path class="cls-5" d="M754.99,132.85c-1.72.03-4.32-4.01-3.93-5.56,1.37-2.22,4.33-3.61,6.62-4.95,1.63,1.58,4.14,4.2,3.58,6.62-.37,1.61-3.78,3.84-6.27,3.88Z"/>
    <path class="cls-4" d="M598.83,380.81c-3.12.09-5.29-.73-7.86-2.16-.09-2.82.9-5.46,2.61-7.65l7.09,2.49c-.05,2.41-.73,4.49-1.84,7.32Z"/>
    <path class="cls-4" d="M682.03,19.05l-7.17-2.29,1.43-7.39c2.63-.23,5.17.42,7.58,1.56-.32,3.09-.67,5.11-1.84,8.12Z"/>
    <path class="cls-1" d="M730.2,40.56c-3.29-.69-5.08-1.96-7.29-3.85.48-1.7,1.36-5.24,3.23-5.91,2-.72,4.74,1.47,6.45,2.54-.03,2.54-.74,4.5-2.38,7.22Z"/>
    <path class="cls-4" d="M703.66,27.78c-2.01-.07-5.56-.31-6.58-2.09-1.27-2.2.59-5.53,1.52-7.48l7.08,2.76c-.43,2.6-.7,4.31-2.02,6.82Z"/>
    <path class="cls-1" d="M746.94,339c-1.79-.73-3.94-2.91-3.75-5.04s3.39-4.33,5.62-4.45c1.63-.09,4,2.83,3.65,4.32-.57,2.44-2.86,3.94-5.52,5.16Z"/>
    <path class="cls-5" d="M537.33,319.21c1.47,2.62-3.96,7.42-5.8,6.83-1.01-.32-2.27-1.7-3.08-3-1.21-1.93,4.14-6.72,5.76-6.45,1.47.24,2.58,1.65,3.12,2.62Z"/>
    <path class="cls-1" d="M523.52,46.95c-1.63.64-4.93-2.71-4.59-4.73s3.53-5.04,5.37-4.5c2.2.64,3.33,3.56,4.25,5.46-1.23,1.36-2.34,2.72-5.03,3.77Z"/>
    <path class="cls-1" d="M747.81,42.19c-.67,2.39-2.01,4.85-4.72,3.54-2.16-1.04-4.84-2.78-6.5-4.35-1.89-1.78.72-3.46,1.2-4.72,3.9,1.08,6.54,3.84,10.03,5.53Z"/>
    <path class="cls-1" d="M763.04,347.6c-1.4.06-3.84-3.17-3.79-4.62.07-1.79,2.72-4.32,4.56-4.38,1.65-.06,4.34,2.76,4.35,4.54s-2.83,4.36-5.13,4.46Z"/>
    <path class="cls-1" d="M732.57,54.4c-1.5,1.03-3.75-.53-4.45-1.45-1.11-1.47-.06-3.91.88-5.57,1.24-2.18,2.13-2.34,3.8-1.7,1.85.7,3.88,1.9,2.86,4.23-.61,1.38-1.57,3.46-3.09,4.5Z"/>
    <path class="cls-5" d="M539.32,349.81c-1.9-.81-4.45-2.53-5.85-4.25-.27-1.43,1.87-4,3.17-4.47,1.55-.56,3.94.98,5.13,2.5s.17,3.87-2.45,6.22Z"/>
    <path class="cls-1" d="M632.47,387.69c-1.7.29-4.62.66-5.95-.6-1.43-1.35-.75-4.75-.3-6.86,1.98-.8,4.08-.61,6.37.12.34,2.53.31,4.88-.12,7.33Z"/>
    <path class="cls-5" d="M774.43,59.62c1.41-.52,6.09,4.16,5.88,5.82-.15,1.18-1.21,2.5-2.51,3.11-1.1.52-6.34-3.32-5.77-5.64.24-.99.93-2.75,2.4-3.29Z"/>
    <path class="cls-1" d="M660.3,13.9c-2.14.16-4.53.16-6.97-.4-.26-1.56-.7-4.24.43-5.66,1.28-1.62,4.78-.99,6.64-.31l-.09,6.37Z"/>
    <rect class="cls-1" x="703.7" y="34.84" width="7.75" height="7.15" transform="translate(399.11 676.37) rotate(-67.3)"/>
    <path class="cls-1" d="M767.66,322.42c.32,2.09-1.78,3.19-2.67,3.51-2.12.74-6.24-3.3-5.8-5.15.27-1.15,1.8-3.4,3.64-3.19s4.5,2.71,4.83,4.84Z"/>
    <path class="cls-1" d="M775.19,313.12c.19,2.23-1.4,3.81-2.43,4.42-1.69,1-6.78-3.3-5.89-5.72.58-1.56,2.39-3.61,4.39-2.36,1.27.8,3.82,2.32,3.93,3.66Z"/>
    <path class="cls-1" d="M764.62,73.58c.07,2.48-2.44,3.97-4.02,3.4-1.33-.47-4.01-2.09-3.45-3.86.38-1.19,1.96-3.48,3.27-3.76,1.58-.33,4.14,2.04,4.2,4.22Z"/>
    <path class="cls-5" d="M503.26,62.69c-.86,2.2-2.72,3.42-3.9,3.38-1.39-.05-2.92-1.36-3.31-2.72-.45-1.55.8-3.38,2.76-4.51s5.29,1.72,4.45,3.85Z"/>
    <path class="cls-5" d="M722.37,369.12c-1.35.98-3.72,1.89-4.59,1.31-1.1-.73-1.65-2.81-1.72-3.95-.09-1.53,1.92-2.16,3.34-2.71,1.88-.73,2.35.1,3,1.2.7,1.18,1.79,2.81-.04,4.14Z"/>
    <path class="cls-5" d="M573.37,27.17c-2.72.96-4.25.94-5.07-1.08s-.27-3.38,2.12-4.44c1.84-.82,3.6-1.38,4.64.64.92,1.79,1.39,3.8-1.68,4.89Z"/>
    <path class="cls-1" d="M716.37,380.5c-2.08.53-2.7-2.3-2.48-3.95s2.46-2.37,4.44-2.91,2.3,1.79,2.49,3.08c.3,2.08-1.68,3.08-4.45,3.78Z"/>
    <path class="cls-4" d="M566.99,371.85c.74,1.58-.67,4-1.71,4.09-1.32.11-3.08-.76-4.48-1.45-1.12-.55-.6-3.45.96-4.67,1.14-.87,4.51.51,5.22,2.03Z"/>
    <path class="cls-5" d="M673.47,8.61c-1.19.61-3.96.38-4.77-.39s-.93-3.99.06-4.53c1.28-.7,3.52-.34,4.75.22,1.33.61,1.59,3.87-.04,4.7Z"/>
    <rect class="cls-5" x="652.17" y="387.32" width="5.52" height="5.35" transform="translate(-3.16 5.35) rotate(-.47)"/>
    <circle class="cls-1" cx="575.76" cy="366.66" r="3.05"/>
    <path class="cls-1" d="M745.71,361.63c-2.25.81-2.88-.95-3.09-2.12-.36-2.03.82-3.09,2.86-3.83s2.82.8,3.23,2.15c.56,1.81-.89,3.02-3,3.79Z"/>
    <rect class="cls-1" x="608.98" y="3.39" width="5.4" height="5.04" transform="translate(2.66 63.24) rotate(-5.93)"/>
    <path class="cls-1" d="M562.86,360.39c.99,1.33-.31,2.82-.89,3.47-1.07,1.19-2.71.53-3.65.02-1.65-.9-2.31-2.5-.75-4.22,1.12-1.23,4.05-.92,5.29.74Z"/>
    <path class="cls-1" d="M546.94,366.32c-1.42-.69-2.57-1.93-2.76-2.85-.2-.97.6-2.39,1.59-2.82s2.36.28,3.52.92c1.64.9,1.13,2,.5,3.07-.53.91-1.15,2.53-2.85,1.69Z"/>
    <path class="cls-1" d="M554.7,24.59c-1.71.9-3.48.89-4.56-.07-.74-.65-1.58-2.23-.47-3.31,1.35-1.31,3.58-1.73,4.76-.52.78.8,1.59,3.2.27,3.89Z"/>
    <path class="cls-5" d="M699.94,11.16c.9.99.59,2.35.3,2.96-.55,1.13-4.98-.31-5.24-.72-.31-.49-.1-2.62.39-3.02.87-.72,3.57-.31,4.56.78Z"/>
    <circle class="cls-1" cx="551.31" cy="31.14" r="2.53"/>
    <path class="cls-4" d="M751.77,207.09l.16-14.15c.81,4.74,1.87,10.65-.16,14.15Z"/>
    <path class="cls-4" d="M750.91,187.02l-.1-1c.89-.21,1.24.91.1,1Z"/>
    <path class="cls-3" d="M741.53,199.69c0,48.02-38.93,86.94-86.94,86.94s-86.94-38.93-86.94-86.94,38.93-86.94,86.94-86.94,86.94,38.93,86.94,86.94ZM711.5,199.41c0-31.4-25.45-56.85-56.85-56.85s-56.85,25.45-56.85,56.85,25.45,56.85,56.85,56.85,56.85-25.45,56.85-56.85Z"/>
    <circle class="cls-3" cx="654.65" cy="199.2" r="18.93"/>
    <g>
      <path class="cls-2" d="M252.51,203.06c11.42-.75,21.96-.3,32.63-3.44,20.5-6.04,27.12-24.26,23.67-45.25-2.75-16.68-16.16-27.28-32.77-27.88-10.67-.38-21.05-.56-32.21-.14v145.35c2.72,8.46,10.25,13.15,19.28,12.15.23.05.58,1.14.19,2.1l-57.5-.92c9.27-1.25,20.77-4.28,20.79-15.18l.2-133.78c.02-11.1-10.52-14.25-20.56-16.26l71.51-.45c22.08-.14,42.9,8.94,49.22,30.43,4.21,14.32,1.73,28.62-7.33,41.09-7.58,10.44-19.79,17.47-34.72,18.65,6.67,4.94,11.47,8.84,16.06,14.47,10.36,12.71,19.91,25.66,31.21,37.61l14.11,12.91c7.41,6.78,16.1,8.1,26.45,10.41-24.76,4.01-47.76-3.06-62.56-22.17l-31.44-40.6c-3.71-4.79-8.07-8.57-12.41-12.59-3.93-3.65-8.3-4.41-13.84-6.52Z"/>
      <path class="cls-2" d="M94.3,144.47l-54.48,124.54c-1.73,4.49-.61,8.06,1.62,10.94,2.99,3.86,7,3.17,11.72,5.29l-52.96.57c-.42-.5-.11-1.78.53-1.81,10-.6,19.61-4.89,24-14.24l61.49-131.15c3.67-7.83,6.51-14.64,10.06-23.54l71.2,153.13c4.78,10.27,14.38,15.6,25.63,15.8.19.12.04,1.38-.25,1.75l-59.32-.38c3.92-2.49,7.68-1.34,10.74-4.19,2.74-2.54,4.23-5.84,3.09-10.61l-53.05-126.1Z"/>
    </g>
    <g>
      <path class="cls-2" d="M528.49,220.57c.08-4.7-1.58-8.23-4.95-10.33-4.13-2.57-8.74-.4-13.26-3.21l49.45-.61c.83-.01,1.56.08,1.79.36.25.31.2,1.38-.1,1.58.06-.04-15.71-.41-15.83,6.45l-.76,43.43c-28.11,32.68-79.54,37.69-118.03,23.06-31.77-12.08-51.83-40.57-52.77-74.19-.41-14.6,1.19-28.35,7.38-41.63,23.11-49.55,84.66-58.82,133.71-41.67l17.33,8.48,4.89,31.88c.11.73-.77,1.35-1.78.84-9.38-32.45-42.27-44.57-74.91-42.1-27.3,2.06-50.96,19.21-61.18,44.92-8.73,21.97-8.68,46.66-.35,68.66,9.36,24.7,30.69,41.18,56.52,44.93,24.6,3.57,53.96-3.33,72.17-20.01l.68-40.85Z"/>
      <path class="cls-2" d="M842.84,282.72c-13.01,5.57-26.97,5.12-40.7,2.69-9.42-1.66-20.61-4.31-27.16-11.4-2.73-10.54-1.07-23.3,3.95-33.74-.67,17.68,6.4,32.5,22.91,37.97,14.2,4.71,29.94,2.09,41.65-7.35,7.55-6.09,10.38-14.85,10.19-24.01s-5.19-16.73-12.79-23.1l-49.99-41.88c-10.12-8.47-14.12-21.95-11.83-34.77,2.17-12.14,10.34-22.81,22.47-28.41,11.32-5.22,23.85-5.58,36.32-3.62,6.72,1.06,12.77,2.05,19.46,1.32l-.96,29.64c-1.58-10.59-5.65-17.63-14.93-21.91-20.65-9.52-45.07.93-48.25,19.16-1.68,9.6,1.19,19.54,8.64,25.76l51.7,43.15c9.43,7.87,14.65,17.35,14.88,29.95.32,17.47-8.52,33.26-25.55,40.55Z"/>
    </g>
  </g>
  <path class="cls-1" d="M488.1,309.71c-1.27-.59-2.56-3.17-2.36-4.58.28-1.99,2.75-2.49,4.04-1.62,1.03.69,2.17,2.54,2.09,3.99-.06,1.13-2.36,2.86-3.77,2.2Z"/>
</svg>