<?xml version="1.0" encoding="UTF-8"?>
<svg id="Capa_1" data-name="Capa 1" xmlns="http://www.w3.org/2000/svg" viewBox="0 0 387.42 391.34">
  <defs>
    <style>
      .cls-1 {
        fill: #4a77bb;
      }

      .cls-2 {
        fill: #0f1014;
      }

      .cls-3 {
        fill: #263c5b;
      }

      .cls-4 {
        fill: #3f6cb3;
      }

      .cls-5 {
        fill: #284570;
      }
    </style>
  </defs>
  <path class="cls-4" d="M237.95,38.05c-4.68-.2-8.35-2.19-12.77-3.54l2.73-12.24c5.03.88,9,2.64,13.27,4.52l-3.23,11.26Z"/>
  <polygon class="cls-4" points="360.61 246.95 348.79 243.97 351.77 230.83 364.07 233.18 360.61 246.95"/>
  <path class="cls-5" d="M356.15,102.14c-2.16,2.78-4.7,4.52-8.54,6.26l-7.83-12.39c2.34-3.14,5.49-5.27,9.15-6.5,3.86,3.47,5.17,7.86,7.22,12.63Z"/>
  <path class="cls-4" d="M46.98,259.78c-4.02,2.03-7.33,3.75-11.82,4.43l-3.94-12.53,11.12-3.87,4.64,11.97Z"/>
  <path class="cls-3" d="M105.82,347.03c-5.52-1.79-9.4-5.76-13.28-10,.96-3.22,2.71-5.5,5.5-7.22l12.53,9.02c-1.19,3.01-2.45,5.11-4.74,8.2Z"/>
  <path class="cls-3" d="M57.23,281.07c-3.13,2.86-6.52,5.15-10.31,5.64l-5.54-11.65c3.28-2.06,6.09-3.4,9.76-4.52l6.09,10.54Z"/>
  <path class="cls-4" d="M307.65,61.01l-8.8-6.95,7.14-9.53,9.02,7.33c-2.35,3.49-4.5,6.23-7.37,9.14Z"/>
  <path class="cls-3" d="M16.81,175.77c-3.26,2.73-7.93-.61-14.94-.4-1.12-1.85-.74-4.67-.08-6.75,6.62,1.87,9.29-4.57,16.37-.6,1.38,1.63.4,6.28-1.35,7.75Z"/>
  <path class="cls-3" d="M355.59,134.81l-9.92,5.36c-1.99-3.53-3.57-6.94-4.75-10.96,3-2.53,6.11-3.98,9.76-4.95l4.91,10.54Z"/>
  <path class="cls-5" d="M181.8,372.94c-3.95.25-7.69-.04-11.6-1.06l1.4-11.45,10.93,1.14-.73,11.37Z"/>
  <path class="cls-4" d="M281.13,349.53l-9.61,5.57c-2.1-1.9-5.19-5.82-5.06-8.91,1.69-2.87,6.2-4.4,9.61-5.59,2.22,2.75,3.35,5.29,5.05,8.92Z"/>
  <polygon class="cls-5" points="365.65 218.75 354.42 217.45 355.54 206.39 366.66 207.3 365.65 218.75"/>
  <path class="cls-3" d="M142.25,364.56l-11.48-4.43c.72-3.72,1.7-6.84,4.07-9.47,3.76,1.92,6.81,2.92,10.6,4.01-.57,3.58-1.48,6.09-3.19,9.88Z"/>
  <rect class="cls-5" x="204.43" y="19.86" width="11.74" height="10.93" transform="translate(159.38 230.94) rotate(-82.96)"/>
  <path class="cls-5" d="M331.02,302.65c-2.09.66-6.91-3.45-6.87-5.62.28-2.97,3.18-5.8,4.97-8.37,2.51.67,7.06,2.56,7.44,5.54.3,2.39-2.8,7.16-5.53,8.45Z"/>
  <path class="cls-4" d="M348.97,307.14c-3.1-1.79-6.88-3.38-8.58-6.72-.9-2.16,1.8-5.92,3.53-7.6l9.95,5.91-4.91,8.4Z"/>
  <path class="cls-4" d="M331.1,325.26c-1.74,4.05.83,10.21-3.83,10.43-1.07.05-2.35-1.07-2.78-1.84-.61-1.11-.24-2.73.59-3.73,1.82-2.2-.23-3.59-.81-5.09-.7-1.8-.29-4.16-.31-5.94l1.1-.93c1.14-.97,2.95-1.33,4.42-1.31,1.3.02,3.42,1.46,3.34,3.25s-1.14,3.83-1.71,5.16Z"/>
  <path class="cls-5" d="M343.51,112.3c-1.28,3.01-5.76,4.15-8.39,5.15-1.87-2.99-3.62-5.02-4.49-8.4,1.71-2.04,5.28-5.44,7.94-4.61,1.94.96,4.88,5.61,4.94,7.86Z"/>
  <path class="cls-5" d="M166.21,370.94l-11.06-2.88,2.06-9.03c3.64-.47,7.17.71,10.29,2.81l-1.3,9.1Z"/>
  <path class="cls-5" d="M329.16,88.97c-2.03,2.61-4.02,4.56-6.92,6.86-1.8-1.87-5.19-4.24-5.9-7.13-.75-3.06,3.87-6.25,6.47-7.05,2.81,1.96,3.86,4.19,6.35,7.31Z"/>
  <path class="cls-3" d="M66.78,333.08c1.02,2.43-3.21,6.29-5.32,6.82-2.75-2.62-5.82-4.85-7.34-8.14.02-2.29,3.49-5.17,5.89-6.02,2.22,2.1,5.33,3.87,6.78,7.34Z"/>
  <path class="cls-5" d="M367.46,275.88l-10.15-.39c-.69-3.69.99-7.27,2.96-10.54,3.66.77,5.98,2.94,9.29,4.57-.17,2.25-.93,3.95-2.1,6.36Z"/>
  <path class="cls-5" d="M235.64,389.19l-9.93,2.15-1.73-8.51,9.87-2.51c1.02,2.82,1.5,5.32,1.79,8.87Z"/>
  <path class="cls-5" d="M34.13,288.58l-8.22,4.39c-1.58-1.86-4.38-5.23-3.78-7.99.48-2.1,5.61-4.37,7.7-3.94,2.49.9,3.42,4.52,4.3,7.54Z"/>
  <path class="cls-5" d="M373.47,128.87c-2.29,1.6-5.64,3.83-8.41,3.07-1.61-1.09-3.37-5.69-2.83-7.92.61-2.54,5.13-3.57,7.48-3.97,1.77,2.75,2.49,4.89,3.75,8.82Z"/>
  <path class="cls-3" d="M238.91,367.06c-3.46,1.07-6.92,1.85-10.78,1.93-1.31-2.52-2-4.92-1.9-7.45l10.79-2.54,1.9,8.06Z"/>
  <rect class="cls-5" x="194.41" y="364.29" width="9.65" height="9.5" transform="translate(-6.75 3.72) rotate(-1.05)"/>
  <path class="cls-4" d="M26.95,172.08l-3.96-.16-1.73-.21-1.03-.93,1.57-8.91c3.64-.26,6.76.31,9.55,1.83-.56,3.07-.56,5.62-1.73,7.94-.45.9-2.08.47-2.68.45Z"/>
  <path class="cls-3" d="M10.15,214.96c-3.07,1.05-5.83.97-9.46.91-.62-3.09-.81-6.22-.61-9.72l8.69-.2,1.38,9Z"/>
  <path class="cls-4" d="M294.09,42.19l-9.95-5.75c.54-1.98,1.27-5.41,3.71-6.27,2.83,1.51,7.03,2.6,8.66,5.25,1.42,2.31-1.85,5.01-2.42,6.77Z"/>
  <path class="cls-5" d="M190.6,8.59c-3.67.78-6.78.44-10.49.32l.02-8.66c3.49-.31,6.32-.3,9.8-.12l.68,8.46Z"/>
  <rect class="cls-5" x="136.59" y="26.12" width="9.66" height="9.4" transform="translate(-3.17 37.36) rotate(-14.88)"/>
  <path class="cls-5" d="M364.72,181.26c-2.82.69-4.99.77-7.29.62l-1.4-9.84,7.12-1.77c1.31,3.27,1.59,6.63,1.57,10.99Z"/>
  <path class="cls-5" d="M137.7,14.63c-3.33,1.32-6.09,2.48-9.86,2.76l-2.04-7.53c3.02-1.34,5.76-2.29,9.36-3.02,1.24,2.44,1.76,4.51,2.54,7.79Z"/>
  <path class="cls-5" d="M56.03,88.9c-2.82-1.42-5.13-3.31-7.09-5.96l6.19-6.36c2.52,1.34,4.36,3.26,6.33,5.64l-5.43,6.69Z"/>
  <path class="cls-5" d="M94.59,55.28c-.57,2.43-5.65,6.56-8.36,6.46-3.06-1.51-4.86-5.73-6.59-8.63,2.8-2.99,5.77-4.62,9.37-6.4,1.79,2.74,4.33,4.89,5.58,8.57ZM87.43,58.56c2.55-.85,4.19-2.86,4.4-4.14s-1.48-3.91-3.01-4.14c-2.27-.34-4.88,1.41-6.46,2.91.21,2.53,2.94,6.07,5.07,5.37Z"/>
  <path class="cls-4" d="M36.68,233.03c-2.11.82-5.72,2.27-8.09,1.35-1.24-1.26-2.76-5.9-1.75-7.49,1.59-2.38,6.13-1.7,8.32-1.38l1.52,7.52Z"/>
  <path class="cls-5" d="M266.95,27.78c-2.76.76-6.31-1.65-8.68-2.96.74-2.87,2.27-6.3,4.68-7.57,1.4-.74,3.61.48,4.39,1.15.91.78,1.94,8.74-.39,9.38Z"/>
  <path class="cls-5" d="M38.36,138.06c-3.31-.08-5.4-1.18-7.94-2.63.33-2.47,1-6.21,3.76-7.47,1.5-.69,5.77.92,6.31,2.45.77,2.18-.98,5.2-2.13,7.66Z"/>
  <path class="cls-3" d="M164.86,383.67c-2.36.59-6.15.14-7.6-2.03-1.03-1.55-.66-5.48.69-6.95s6.35-.93,7.46.72c1.42,2.12.5,5.26-.54,8.27Z"/>
  <path class="cls-4" d="M145.26,379.79c-2.35-.51-5.38-.84-6.84-2.47-1.25-1.39,0-6.29,1.73-6.98,2.24-.9,5.46,1.02,7.38,2,.04,2.7-.69,4.93-2.28,7.46Z"/>
  <path class="cls-4" d="M25.67,249.7c-2.04.78-5.12,2.08-7.43,1.61-1.82-1.44-2.03-5.44-1.93-7.6l7.59-1.63c.98,2.31,1.46,4.25,1.77,7.63Z"/>
  <path class="cls-4" d="M228.62,18.96l-7.46-2.01,1.65-7.95,7.68,1.83c-.07,2.75-.79,5.16-1.86,8.12Z"/>
  <rect class="cls-5" x="167.53" y="21" width="9.88" height="7.66" transform="translate(-1.24 11.12) rotate(-3.68)"/>
  <path class="cls-5" d="M111.73,46.37c-2.48,1.74-4.62,2.8-7.2,3.36l-3.38-6.88c1.6-1.44,4.33-3.84,6.92-3.48,1.99.65,3.03,4.53,3.65,6.99Z"/>
  <path class="cls-5" d="M31.6,158.69c-2,.29-6.09,0-6.9-2.07-.85-2.2,1.08-5.08,1.75-7.05,2.66-.26,4.89.43,7.25,1.72-.33,2.65-.93,4.87-2.1,7.4Z"/>
  <rect class="cls-3" x="6.33" y="185.22" width="9.05" height="8.5" transform="translate(-178.75 197.58) rotate(-89.17)"/>
  <rect class="cls-5" x="15.26" y="137.34" width="8.54" height="8.42" transform="translate(-122.18 123.23) rotate(-74.78)"/>
  <rect class="cls-3" x="171.82" y="378.56" width="8.5" height="7.69" transform="translate(-211.69 546.35) rotate(-88.2)"/>
  <path class="cls-3" d="M276.31,40.39c-2.55-.83-5.66-1.87-6.8-3.67-.36-2.04,1.55-4.71,2.63-6.49,2.87.4,4.95,1.91,6.97,3.66-.74,2.41-1.06,4.05-2.79,6.5Z"/>
  <path class="cls-5" d="M69.54,47.31c-1.74-.13-3.87-3.54-3.49-5.17.43-1.86,3.11-4.43,5.12-4.44,1.6,0,3.8,3.56,3.77,5.38-.03,2-3.05,4.41-5.4,4.24Z"/>
  <rect class="cls-3" x="344.74" y="257.54" width="7.78" height="8.28" transform="translate(-28.97 479.48) rotate(-66.87)"/>
  <path class="cls-5" d="M386.85,182.11c-2.19-.66-5.94-.93-6.83,1.78-.56,1.72-.22,3.9.42,5.08s4.08,1.9,4.74.18l1.54-4c.86,1.64.66,3.32.68,5.5-2.92.67-5.71,1.25-8.79.89-.35-3.89-.71-7.23-.14-10.87l8.12-.38c.33.46.24,1.46.24,1.82Z"/>
  <path class="cls-5" d="M83.34,321.93c-1.29,1.15-2.37,2.98-3.89,3.03-1.34.04-3.04-1.52-3.91-2.95-1.17-1.93,3.98-7.54,7.37-5.55,1.7.99,2.96,3.2.42,5.47Z"/>
  <path class="cls-3" d="M294.09,42.19c-.66,2.02-1.53,4.49-3.98,3.71s-5.46-2.93-7.21-4.64c-1.83-1.79.89-3.57,1.23-4.82l9.95,5.75Z"/>
  <path class="cls-3" d="M309.34,346.5c-1.47-.01-3.87-3.16-3.87-4.56,0-1.85,2.64-4.38,4.55-4.39,1.77-.01,4.29,2.71,4.33,4.62.04,1.59-2.77,4.34-5.01,4.33Z"/>
  <path class="cls-3" d="M293.49,337.53c-1.6.84-4.83-3.33-3.99-5.1.88-1.87,3.47-3.89,5.44-4.07,1.47-.13,4.15,3.02,3.58,4.31-.74,1.66-2.56,3.55-5.03,4.86Z"/>
  <rect class="cls-3" x="372.89" y="204.44" width="7.71" height="7.51" transform="translate(151.59 575.05) rotate(-87.39)"/>
  <path class="cls-5" d="M86.61,348.66c-2.63-.67-4.54-2.6-6.3-4.68.82-1.55,2.07-4.01,3.86-4.38,1.54-.32,4.79,2.13,5.13,3.7.4,1.85-1.51,3.93-2.7,5.37Z"/>
  <path class="cls-3" d="M281,51.95c-1.39,2.68-2.98,3.06-4.82,2.28-2.64-1.12-2.78-3.15-1.52-5.61.74-1.44,1.68-3.29,2.98-3.18,1.68.14,3.08,1.19,3.9,1.9,1.41,1.21.12,3.35-.54,4.62Z"/>
  <path class="cls-5" d="M320.63,59.5c1.67-.46,6.51,4.42,5.66,6.48-.46,1.11-1.7,2.52-2.88,2.58-1.52.07-5.58-3.78-5.35-5.87.12-1.07.94-2.74,2.57-3.18Z"/>
  <path class="cls-5" d="M306.31,69.47c1.93-1.08,4.04,1.26,4.85,2.79.95,1.8-.95,3.94-2.54,4.97-1.87,1.22-3.56-.67-4.64-1.86-1.71-1.89-.53-4.31,2.32-5.91Z"/>
  <path class="cls-3" d="M255.5,42.45c-1.41.79-4.96-.74-5.24-2.18-.32-1.61.45-4.69,1.82-5.75s5.58.51,5.77,2.48c.16,1.67-1.04,4.66-2.35,5.45Z"/>
  <path class="cls-3" d="M321.38,311.98c.2,2.27-1.42,3.86-2.38,4.4-1.59.9-6.41-3.14-6.15-4.81.14-.93,1.12-2.78,2.75-3.37s5.62,1.95,5.78,3.78Z"/>
  <path class="cls-3" d="M312.22,318.6c1.86,1.74,2.41,3.36.9,4.99-1.64,1.78-3.6,1.9-5.53-.37-.88-1.04-2.59-2.08-2.15-3.52.35-1.16,1.57-2.49,2.6-3.13,1.66-1.03,2.95.9,4.18,2.04Z"/>
  <rect class="cls-3" x="199.95" y="6.99" width="7" height="7.1" transform="translate(186.5 213.56) rotate(-88.2)"/>
  <path class="cls-5" d="M119.59,27.59c-2.27.62-3.73.54-4.69-1.84-.8-1.97-.42-3.41,2.48-4.37,2.29-.76,4.12-.89,5.02,1.62.77,2.16.23,3.76-2.8,4.58Z"/>
  <path class="cls-4" d="M386.85,182.11c.01.8.2,2.22-.12,3.04l-1.54,4c-.66,1.71-4.13.94-4.74-.18-.65-1.18-.99-3.36-.42-5.08.89-2.71,4.64-2.44,6.83-1.78Z"/>
  <rect class="cls-5" x="367.1" y="159.31" width="6.77" height="6.91" transform="translate(-18.09 49.8) rotate(-7.51)"/>
  <path class="cls-4" d="M29.21,104.69c.55,1.74-.9,4.57-2.12,4.89-1.39.36-3.86-.76-4.6-1.78-.95-1.31-.2-4.88,1.76-5.35,1.27-.3,4.57.99,4.96,2.24Z"/>
  <path class="cls-5" d="M301.57,64.72c-.78,2.19-2.22,3.79-3.72,4.07-1.93.36-3.91-1.64-3.86-3.24s1.48-4.23,3.43-4.45c1.54-.17,4.86,1.66,4.16,3.63Z"/>
  <path class="cls-3" d="M29.72,268.01c1.44,2.17,1.82,4.88.66,5.64-1.1.72-3.42,1.82-4.69,1.2-1.07-.52-1.95-3.16-1.5-5.01.38-1.6,4.63-3.13,5.53-1.83Z"/>
  <path class="cls-4" d="M250.67,21.92c1.04,1.41-.28,4.54-1.35,5.12-1.42.77-4-.09-5.46-1.4-1.11-1-1.29-3.83.85-5.13,1.29-.78,4.7-.3,5.95,1.41Z"/>
  <path class="cls-5" d="M360.3,254.04c1.11,1.34,3.21,2.33,4.99,1.83,1.19-.33,2.94-3.03,1.96-4.47-1.64-2.41-5.33-.95-6.88.33.2-.83.91-3.09,1.9-3.14,2.64-.14,4.9,1.04,7.21,1.66l-2.45,7.66-7.3-1.85c-.71-.18-.25-1.96.57-2.02Z"/>
  <path class="cls-5" d="M50.46,62.64c-.81,2.17-2.7,3.34-3.88,3.29-1.34-.05-2.87-1.33-3.27-2.7-.43-1.47.82-3.36,2.73-4.43s5.23,1.67,4.42,3.83Z"/>
  <rect class="cls-3" x="25.97" y="113.08" width="6.06" height="6.94" transform="translate(-88.91 93.72) rotate(-65.07)"/>
  <path class="cls-5" d="M369.09,229.76c.44,2.38,1.88,3.54,3.43,3.51,2.43-.05,3.89-1.53,3.5-3.77-.29-1.69-2.55-2.5-4.02-2.99,1.88-.59,5.06-.5,5.41,1.68.37,2.35-.77,4.75-1.27,7.29l-6.84-1.15c-1.87-.32-.64-3.09-.21-4.57Z"/>
  <path class="cls-5" d="M267.13,368.86c-2.36.77-4.08-.75-5.06-2.96.63-1.8,1.82-3.06,3.76-3.61,2.1-.59,3.28,1.11,3.76,3.39.35,1.68-.76,2.67-2.46,3.18Z"/>
  <path class="cls-5" d="M376.39,151.69c-1.51-.05-2.34-4.21-1.42-5.4.65-.85,3.37-1.14,4.23-.81,1.07.41,1.61,2.5,1.58,4.03-.02,1.43-1.93,2.27-4.39,2.18Z"/>
  <path class="cls-4" d="M383.47,220.09c1.04,1.31.4,4.37-.53,5.16s-3.98.85-4.32-.37c-.52-1.86-.21-3.42.23-4.64.39-1.1,3.55-1.5,4.63-.15Z"/>
  <path class="cls-4" d="M112.11,374.68c-1.79.07-3.88-.75-4.79-2.14-.66-1.01.55-3.71,1.59-4.07,1.44-.5,3.84.62,4.63,1.63.93,1.2.36,4.51-1.42,4.58Z"/>
  <path class="cls-5" d="M17.2,118.6c1.37-.96,4,.06,4.51,1.09.56,1.13,0,3.98-1.31,4.93-.87.63-3.1-.47-4.24-1.23-1.05-.7-.99-3.38,1.03-4.8Z"/>
  <path class="cls-3" d="M265.9,372.31c.55,1.34,1.88,3.77.97,4.88-.99,1.22-3.79,2.24-5.19,1.62-1.32-.58-1.61-3.41-1.75-4.81l5.98-1.7Z"/>
  <path class="cls-5" d="M7.36,235.51c2.51-.48,3.29.4,3.41,2.12.14,1.99-.04,3.34-1.73,3.78-1.84.48-3.25.17-3.6-1.21-.6-2.37-.47-4.23,1.92-4.69Z"/>
  <path class="cls-3" d="M14.31,265.08c-2.27,0-2.92-2.63-3.03-3.81-.2-2.24,2.17-2.28,3.34-2.4,1.95-.19,3.3.92,3.4,2.68.1,1.86-.48,3.53-3.71,3.52Z"/>
  <path class="cls-3" d="M293.34,359.83c-2.09,1.25-3.31.94-4.19-.46-1.1-1.75-1.11-2.88,1.01-4.22,1.68-1.06,3.43-1.42,4.29-.11,1.11,1.7.96,3.54-1.11,4.78Z"/>
  <path class="cls-4" d="M220.62,4.98c.76.85.21,4.04-.69,4.36-.97.34-2.74-.26-3.67-.52-1.51-.42-1.88-2.88-.8-5.08,1.11-.26,3.72-.35,5.15,1.24Z"/>
  <path class="cls-4" d="M372.01,226.51c1.47.49,3.72,1.3,4.02,2.99.39,2.24-1.07,3.72-3.5,3.77-1.55.03-2.99-1.14-3.43-3.51l.75-2.57,2.17-.68Z"/>
  <path class="cls-4" d="M360.3,254.04c-.3-1.15-.1-1.59.07-2.3,1.55-1.28,5.25-2.74,6.88-.33.98,1.44-.77,4.14-1.96,4.47-1.78.49-3.88-.5-4.99-1.83Z"/>
  <path class="cls-5" d="M331.1,325.26c.57-1.33,1.63-3.33,1.71-5.16s-2.04-3.23-3.34-3.25c-1.47-.02-3.28.34-4.42,1.31.06-1.31,1.91-4.55,3.76-3.93,1.95.65,5.09,3.05,5.91,4.96,1.12,2.6-2,5.06-3.63,6.07Z"/>
  <path class="cls-3" d="M35.3,308.76c-1.61-.12-3.05-4.16-2.16-5.25,2.06-2.56,4.28-1.38,5.36.57.93,1.67.28,4.94-3.2,4.69Z"/>
  <path class="cls-5" d="M102.06,24.3c-1.41,1.39-3.25,1.57-4.13,1.22-1.18-.49-2.31-2.76-1.44-3.87,1.11-1.41,3.14-1.9,4.47-1.23.96.49,2.25,2.74,1.09,3.88Z"/>
  <path class="cls-5" d="M156.72,3.63c2.3-.64,3.86-.29,4.25.82.59,1.67-.02,3.76-1.56,4.07-.91.19-2.72.53-3.52-.7-.6-.93-1.1-3.66.83-4.19Z"/>
  <path class="cls-3" d="M121.14,362.64c1.58-1.21,3.38.09,4.03.85,1.03,1.21.44,3.25-.41,4.08-1.25,1.21-3.2.62-4.2-.01s-.83-3.85.57-4.92Z"/>
  <path class="cls-5" d="M377.83,250.38c-.62,2.02-1.99,1.88-3.33,1.51s-1.36-1.63-1.01-3.49c.28-1.45.95-2.32,1.92-2.3.71.01,2.53.13,2.98.77.41.58-.2,2.37-.55,3.5Z"/>
  <path class="cls-3" d="M109.7,359.59c.68,1.89-.68,3.05-1.46,3.3-1.33.42-2.99-.18-3.81-.95-1.09-1.02-.98-2.99.58-4.29.99-.82,4.07.23,4.68,1.94Z"/>
  <circle class="cls-5" cx="98.3" cy="31.15" r="2.79"/>
  <rect class="cls-5" x="199.14" y="385.66" width="5" height="5.65" transform="translate(-191.03 581.84) rotate(-88.78)"/>
  <circle class="cls-3" cx="94.26" cy="362.17" r="2.88"/>
  <rect class="cls-3" x="5.73" y="148.19" width="5.54" height="5.09" transform="translate(-141.41 132.81) rotate(-79.95)"/>
  <rect class="cls-5" x="242.06" y="9.49" width="4.06" height="5.62" transform="translate(182.66 248.86) rotate(-78.33)"/>
  <path class="cls-5" d="M324.26,325.03c-1.61-.24-3.32-1.49-2.91-3.21.26-1.11,1.71-1.97,2.6-2.73.02,1.78-.39,4.14.31,5.94Z"/>
  <path class="cls-2" d="M22.99,171.92l3.96.16"/>
  <path class="cls-4" d="M87.43,58.56c-2.13.7-4.87-2.84-5.07-5.37,1.58-1.5,4.19-3.25,6.46-2.91,1.54.23,3.22,2.92,3.01,4.14-.21,1.28-1.85,3.29-4.4,4.14Z"/>
  <g>
    <path class="cls-4" d="M299.37,90.79c-1.37.95-2.7,2.06-3.92,2.21-1.76.22-2.51-1.77-3.68-2.72l-20.28-16.47c-.71-1.27-2.21-1.6-3.8-2.61-15.56-9.86-32.33-17.07-50.56-20.54-.9-.17-2.82.19-3.48.42-.79.27-.7,2.04-.31,3.23-57.28-10.55-112.79,13.17-145.97,61.06-16.69,24.09-24.44,52.06-25.64,80.7l-2.64.07-6.97-.41c-.67-1.76-.29-3.29-.23-4.75l.1-2.37v-4.64s.87-6.4.87-6.4c.41-3.01.61-6.08,1.15-9.01,7.19-39.46,29.38-74.56,62.33-98.15,9.75-6.98,19.42-12.77,30.43-17.33,54.67-22.65,117.28-12.42,161.53,26.6,4.27,3.77,7.49,7.37,11.08,11.11Z"/>
    <path class="cls-4" d="M58.16,197.95c-.25,49.62,24.9,95.88,67.64,122.35,51.69,32.02,117.73,25.01,161.96-16.48,1.96-1.83,3.23-3.94,5.73-3.9,1.03.5,1.92,1.09,2.7,2.16.1,3.22-2.88,4.52-5.33,6.81-23.35,21.9-52.66,34.95-84.82,37.06l-10.1,1.08c-1.09.12-1.27,3.24-1.08,3.96-58.49-.43-111.16-37.23-134.34-90.11l-4.98-10.2c.22-1.89-.52-4.63-1.15-6.44-1.77-5.1-2.57-10.54-3.99-15.64-.15-.13-.27-.43-.15-.69l-1.79-12.16-.23-3.75c-.29-4.62-.08-9.21-.12-13.85,3.48.09,6.75.54,10.07-.2Z"/>
    <path class="cls-5" d="M342.99,199.88c.24,15.4-2.04,30.4-6.68,45.5-19.22,62.52-76.4,106.09-141.46,105.61-.19-.72-.01-3.85,1.08-3.96l10.1-1.08c32.16-2.11,61.47-15.16,84.82-37.06,2.45-2.3,5.43-3.59,5.33-6.81,21.77-22.04,36.29-50.56,40-81.94.85-7.21,2.57-13.6,1.81-20.09l4.99-.17Z"/>
    <path class="cls-4" d="M340.95,173.99c.13.77.26,1.51.68,2.36.71,7.4,1.24,15.85,1.36,23.53l-4.99.17-.1-.89c-.12-22.23-4.93-43.81-14.69-64.2-3.32-6.94-6.15-13.69-11.29-18.92l.25-2.88c.77-.04,1.69-.52,1.84-1.31,1.86-.21,2.59.82,3.7,2.48,12.12,18.26,19.59,38.46,23.26,59.67Z"/>
    <path class="cls-3" d="M271.49,73.82l20.28,16.47c1.17.95,1.92,2.94,3.68,2.72,1.23-.15,2.56-1.26,3.92-2.21,5.59,5.82,11.16,11.98,15,19.17l-4.23.75c.2,2.14,1.25,2.21,2.02,2.44l-.25,2.88c-5.03,2.32,5.3,9.83,5.55,17.77-1.74-.07-1.78-1.44-2.45-2.77-12.08-23.99-29.47-42.3-51.25-56.67,3.75-3.13,5.67,2.37,7.73-.54Z"/>
    <path class="cls-2" d="M55.52,250.67l4.98,10.2"/>
    <path class="cls-2" d="M34,168.57c-.53,2.93-.73,6-1.15,9.01"/>
    <path class="cls-5" d="M314.37,109.95l-.37,1.88c-.16.79-1.07,1.27-1.84,1.31-.77-.23-1.81-.3-2.02-2.44l4.23-.75Z"/>
    <path class="cls-5" d="M341.63,176.35c-.42-.85-.55-1.59-.68-2.36,1.38.17.6,1.54.68,2.36Z"/>
    <path class="cls-1" d="M287.92,199.01c0,47.88-38.81,86.69-86.69,86.69s-86.69-38.81-86.69-86.69,38.81-86.69,86.69-86.69,86.69,38.81,86.69,86.69ZM257.87,198.74c0-31.26-25.34-56.6-56.6-56.6s-56.6,25.34-56.6,56.6,25.34,56.6,56.6,56.6,56.6-25.34,56.6-56.6Z"/>
    <path class="cls-1" d="M106.29,191.79l-17.69-.54c3.28-51.15,40.73-93.96,91.75-102.86l3.6,16.99c-41.88,7.87-74.1,42.79-77.67,86.41Z"/>
    <path class="cls-1" d="M319.14,181.34c-.24.17-.03.94-.09,1.2-.66,3.19.73,8.6.75,12.42l.04,10.92c0,1.42-.6,3.29-1.15,4.38-.37.74-1.72.92-2.46.61l-5.28-.51-11.78-.47c-.27-1.43.11-4.2-1.16-4.87l.02-10.04c.99-.28,1.22-1.4.99-2.37-.13-.55-.72-1.25-1.23-1.71-1.27-12.27-5.23-24.67-11.03-35.74,7.05-1.99,13.5-8.98,15.49-5.47,5.09,9,7.75,18.59,10.75,28.46.66,2.16,4.73,2.57,6.14,3.19Z"/>
    <path class="cls-5" d="M265.02,105.09c9.88,7.3,19.61,15.45,26.39,25.63-3.73,4.02-9.03,8.45-13.67,10.57-8.28-11.05-19.13-19.18-30.71-26.83-3.58-7.8,7.72-13.06,1.57-13.53l1.72-4.52c2.39,1.34,5.47,2,8.05,4.25,2.14,1.86,4.68,2.99,6.65,4.44Z"/>
    <path class="cls-5" d="M281.01,265.82c.25.54.65,1.15,1.18,1.22l.66.09c.94,2.83,1.47,5.77,1.16,8.95-.74,1.44-2.61,2.79-3.84,4.03-1.41-.35-2.94-.16-3.78.87-.61.75-.63,2.01-.23,3.17-9.74,8.27-20.77,15.86-32.9,19.94-2.66-5.04-4.1-10.1-5.62-15.77,14.59-5.64,26.91-15.11,37.48-27.38l5.88,4.89Z"/>
    <path class="cls-5" d="M147.66,278.42l-9.15,12.5c-9.76-3.98-27.23-23.37-33.82-35.1,4.85-3.39,9.54-5.91,15.11-8.11,5.05,10.84,19.14,25.56,27.86,30.71Z"/>
    <path class="cls-5" d="M72,137.98c-.6,3.61-2.32,6.8-3.93,10.03-1.35-.14-2.41.49-2.78,1.81-.21.74-.26,1.94.94,2.66-4.84,14.65-7.99,29.87-8.07,45.48-3.33.74-6.59.29-10.07.2-.24-23.25,5.9-46.5,16.45-67.22,1.91.26,3.32-.8,3.79-2.09.67-1.81.64-3.38.37-5.04.33-.4.8-1.33.89-1.84,1.97-.19,3.92.39,4.84,2.23,2.6,5.25-7.88,11.07-2.43,13.78Z"/>
    <path class="cls-4" d="M265.02,105.09c-1.96-1.45-4.5-2.58-6.65-4.44-2.59-2.25-5.66-2.91-8.05-4.25-21.6-12.09-47.09-16.02-72.29-12.54-14.24,1.97-26.82,7.16-39.2,14.06-1.22.68-2.59-.78-2.8-1.54-.37-1.38.26-2.51,1.92-3.43,36.79-20.48,81.64-20.25,118.17.92l8.28,5.79c1.76,1.23,1.2,3.99.62,5.44Z"/>
    <path class="cls-3" d="M337.89,199.15l.1.89c.76,6.49-.96,12.88-1.81,20.09-3.7,31.38-18.23,59.9-40,81.94-.79-1.07-1.68-1.66-2.7-2.16.1-1.69,1.15-3.15,2.69-4.82,24.33-26.34,36.62-60.54,36.61-96l5.1.06Z"/>
    <path class="cls-4" d="M319.14,181.34c-1.41-.62-5.48-1.03-6.14-3.19-3-9.87-5.67-19.46-10.75-28.46-1.99-3.52-8.44,3.48-15.49,5.47l-9.02-13.87c4.64-2.11,9.94-6.54,13.67-10.57,1.06.96,2.94,1.83,4.17,3.72,8.68,13.4,15.33,27.36,19.08,42.97.46.95,3.35.59,4.37.74,1.14.17.81,2.69.12,3.19Z"/>
    <path class="cls-4" d="M87.8,231.61c.62,2.06.58,3.46-.43,4.05-1.08.64-2.64.78-3.12-.76-8.52-27.37-8.64-56.05,1.95-82.56.38-.94,4.06-.32,4.29.74-9.73,25.21-10.54,52.3-2.7,78.52Z"/>
    <path class="cls-5" d="M337.89,199.15l-5.1-.06-.86-14.98c.31-.27,1.21-1.05,1.01-1.55-.27-.7-1.24-.8-1.78-.69-.33-10.43-3.43-20.35-6.8-30.17,2.71-5.2-4.39-15.55-5.08-15.63s-1.25.05-1.73.3c-.4-.7-.07-1.87-.09-2.58-.26-7.94-10.58-15.45-5.55-17.77,5.14,5.23,7.97,11.99,11.29,18.92,9.76,20.39,14.57,41.97,14.69,64.2Z"/>
    <path class="cls-4" d="M163.52,313.79c-19.12-6.01-34.94-16.86-48.96-30.3-5.55-5.32-10.39-10.83-14.22-17.64-.71-1.26,3.01-3.28,4.22-1.52,25.53,37.14,60.17,43.58,61.28,46.31.35.87-.38,3.77-2.32,3.16Z"/>
    <path class="cls-4" d="M316.23,210.86c.74.32,2.09.14,2.46-.61.55-1.09,1.16-2.97,1.15-4.38l-.04-10.92c-.01-3.82-1.41-9.23-.75-12.42.6-.22,1.26.1,1.5.52.45.76-.35,2.17-.23,3.06l1.13,8.81c-.84,4.26-.09,7.92-.27,12.1-.96,22.33-7.11,41.02-19.16,59.87-.95.32-2.67-1.08-2.91-1.83-.25-.81-.05-2.16.67-3.36,9.4-15.69,16-32.96,16.45-50.84Z"/>
    <path class="cls-4" d="M73.32,189.24c-1.35,23.23,3.16,48.11,14.99,68.94-2.57,2.36-4.98,3.83-8.64,5.13-7.88-15.7-13.26-31.95-15.31-49.59l-.41-24.61,9.36.12ZM84.82,256.98c-6.77-14.97-11.43-30.35-13.02-46.95-.95-9.95-.22-18.26-1.43-18.93-.89-.49-2.92-.4-3.71.07-.99.6-1.4,2.23-1.11,3.8,1.05,5.77-.08,11.32.52,17.1,1.36,13.04,4.78,25.38,9.26,37.58l3.97,8.01c.65,1.3,2.08,2.23,2.97,2.19s2.97-1.92,2.54-2.87Z"/>
    <path class="cls-3" d="M184.57,67.2l.42-2.22v-4.96s-.01-2.28-.01-2.28c8.61-.04,17.29-.31,25.97,2.05l-2.1,9.46c-8.27-1.21-15.99-2.43-24.27-2.05Z"/>
    <path class="cls-4" d="M310.95,210.35c-.76,5.74-1.25,11.57-3.12,17.76-4.66.35-8.74-1.04-12.91-3.3,2.06-6.85,3.08-13.24,3.09-19.8,1.27.68.89,3.45,1.16,4.87l11.78.47Z"/>
    <path class="cls-4" d="M97.8,139.48c-.92,1.64-5.02-.49-4.52-1.47,7.9-14.83,19.52-26.87,32.83-37.18,1.41-1.09,4.05,2.79,2.61,3.87-12.53,9.4-22.96,20.52-30.91,34.77Z"/>
    <path class="cls-5" d="M271.49,73.82c-2.05,2.91-3.97-2.59-7.73.54-2.13-1.41-4.55-2.78-6.78-4.08-.22-3.93-10.72-7.55-18.05-10.17-.59-.21-1.14.73-1.04,1.21-7.96-2.99-16.25-5.48-24.55-7-.39-1.18-.48-2.96.31-3.23.66-.23,2.58-.59,3.48-.42,18.24,3.48,35.01,10.69,50.56,20.54,1.6,1.01,3.1,1.35,3.8,2.61Z"/>
    <polygon class="cls-4" points="138.52 290.92 147.66 278.42 158.61 284.89 151.32 299.09 140.72 293.19 138.52 290.92"/>
    <path class="cls-4" d="M184.98,57.74v2.28s-11.87.15-11.87.15c-10.34,1.38-31.97,5.92-33.49,9.39-.54,1.24,1.4,4.11,3.28,3.44,13.79-4.86,27.91-7.01,42.09-8.02l-.42,2.22c-15.39.71-29.96,3.6-44.5,9.27-1.89-2.79-2.63-5.36-3.38-8.92,15.52-6.39,31.81-9.74,48.28-9.82Z"/>
    <path class="cls-3" d="M301.89,245.16c-4.5-.89-8.25-2.76-12.17-4.94l4.52-12.07,12.55,2.51-4.9,14.5Z"/>
    <polygon class="cls-5" points="240.63 109.29 226.79 104.09 229.4 93.04 244.98 98.97 240.63 109.29"/>
    <path class="cls-3" d="M223.65,103.03l-14.42-2.28c-.01-3.93.15-7.46,1.19-11.4,5.46.34,10.23,1.43,15.72,2.72l-2.49,10.97Z"/>
    <path class="cls-4" d="M237.64,288.31c1.53,5.67,2.96,10.74,5.62,15.77-5.51,3.62-12.17,4.91-19.69,6.35l-3.62-16.73,17.69-5.39ZM239.04,303.9c.11-4.54-.45-8.55-2.58-12.85l-12.33,3.84c-.42,4.46-.67,8.26.99,12.16,4.99.56,9.43-1.08,13.91-3.15Z"/>
    <path class="cls-4" d="M321.2,157.27l-8.88,2.78c-1.52-5.6-3.27-10.05-5.96-15.08l8.01-4.2c2.98,5.15,4.72,10.38,6.83,16.49Z"/>
    <path class="cls-4" d="M252.28,73.62c-1.1,3.63-2.35,6.03-4.13,8.85l-13.39-5.77,3.14-9.16c5.4,1.05,9.08,3.75,14.38,6.08Z"/>
    <path class="cls-4" d="M101.48,101.07l-6.75-7.11c2.82-3.38,5.73-5.6,9.67-8.28,2.43,1.96,4.2,4.43,6.09,7.76l-9.02,7.64Z"/>
    <path class="cls-4" d="M295.51,288.57c-3.09.27-6.66-3.86-8.49-6.37l5.75-7.39,8.74,6.22c-1.73,2.55-3.17,5.27-5.99,7.54Z"/>
    <path class="cls-4" d="M289.5,102.55c-2.39,3.11-4.44,5.36-7.25,7.07l-7.12-8.06,6.55-7.19,7.82,8.19Z"/>
    <path class="cls-4" d="M214.28,320.22c-1.54-1.13-1.52-3.26-.95-4.98,6.59-.58,13.02-2.32,19.65-3.53,1.03.55,1.73,3.05,1.34,4.41-6.42,2.06-12.44,2.97-20.03,4.1Z"/>
    <path class="cls-4" d="M279.05,304.13l-6.29-7.29c2.8-2.25,5.06-3.96,7.05-6.86,2.95,2.1,5.14,4.24,7.14,7.04-2.08,3.16-4.82,4.99-7.9,7.11Z"/>
    <path class="cls-5" d="M76.64,168.39c-2.21,1.84-7.24-.43-9.3-1.4l2.92-9.95c3.4.47,6.42,1.42,9.46,3.23-1.03,2.1-.79,6.2-3.08,8.11Z"/>
    <path class="cls-4" d="M262.32,316.78c-2.63,2.27-5.23,3.24-8.68,4.64-2.36-2.36-3.59-5.71-4.17-8.96,2.28-1.07,4.83-3.66,7.46-3.33,2.67.6,4,4.45,5.4,7.65Z"/>
    <path class="cls-3" d="M98.92,291.09c-2.98-2.7-5.39-4.74-7.1-8.5l7.34-5.24c2.38,1.26,6.34,4.61,5.84,7.65-.8,2.29-4.87,3.3-6.08,6.1Z"/>
    <path class="cls-3" d="M249.97,322.83c-2.74,2.03-5.43,3.32-8.93,3.98-1.15-2.33-2.83-5.99-1.97-8.84.57-1.91,5.68-3.58,7.45-2.65,2.4,1.26,2.93,5.09,3.46,7.52Z"/>
    <path class="cls-4" d="M145.3,324.22c-14.52-6.16-26.61-14.65-37.82-25.02,1.49-3.21,3.59-5.32,6.41-6.71,10.76,9.9,22.56,16.99,35.32,23.13-.7,3.37-1.51,5.99-3.91,8.6ZM144.34,315.22c-3.86-.83-13.47-7.28-18.63-11.02l-10.38-7.53c-1.18-.86-2.6-.85-3.41-.24-4.34,3.31,6.12,9.24,12.07,13.59,8.33,6.09,22.07,15.69,22.12,8.43,0-.83.02-2.84-1.76-3.22Z"/>
    <path class="cls-3" d="M72,137.98c-5.46-2.71,5.03-8.54,2.43-13.78-.91-1.85-2.87-2.43-4.84-2.23.14-.88,1.16-3.04,2.3-2.68,3.06.96,5.47,3.31,7.63,5.75l-4.89,9.67c-.75,1.49-1.34,2.84-2.63,3.28Z"/>
    <path class="cls-4" d="M213.3,334.27l-11.68.7-.34-9.69,11.13-.88.89,9.86ZM210.79,332.2c1.33-2.11.28-5.73-1.38-6.09-1.97-.43-4.56-.12-5.89,1-1.03.87-1.3,4.6,0,5.47,1.57,1.05,6.27,1.2,7.27-.39Z"/>
    <path class="cls-5" d="M301.31,132.51c-2.12-.07-3.53-3.71-4.21-5.72,1.41-1.76,4.2-3.94,6.85-3.77,1.81.12,4.23,3.88,3.47,5.56s-3.76,4-6.12,3.92Z"/>
    <path class="cls-1" d="M88.89,114.06c-.31.22-.97.71-1.06,1.25-2.72.11-5.68-.48-8.07-3.43l4.81-6.37c1.3-1.72,4.29,1.24,4.98,2.56.94,1.83-.19,3.93-.66,5.99Z"/>
    <path class="cls-1" d="M178.92,329.07c-.53.72-.42,1.95-.3,2.47-2.64.4-6.57.83-9.33-1.11-1.28-.95-.69-5.45.81-5.99,4.15-1.49,8.01.56,8.82,4.63Z"/>
    <path class="cls-4" d="M178.92,329.07c-.81-4.07-4.66-6.12-8.82-4.63-1.49.54-2.09,5.04-.81,5.99,2.76,1.94,6.69,1.51,9.33,1.11.81,3.26-4.81,2.46-11.52.29-.23-3.61.57-6.62,1.85-10.01l10.05,2.33c1.61.37.68,3.91-.08,4.93Z"/>
    <path class="cls-3" d="M256.98,70.27c-6.08-3.57-12.51-6.49-19.09-8.96-.1-.48.45-1.43,1.04-1.21,7.33,2.62,17.83,6.24,18.05,10.17Z"/>
    <path class="cls-3" d="M247.03,114.45c-.81.04-4.29-.92-3.64-2.31l5.21-11.22c6.15.48-5.15,5.73-1.57,13.53Z"/>
    <path class="cls-3" d="M324.37,151.7c-1.82-5.31-4.02-10.47-6.81-15.33.48-.25,1.03-.38,1.73-.3s7.79,10.43,5.08,15.63Z"/>
    <path class="cls-4" d="M88.89,114.06c.47-2.06,1.61-4.16.66-5.99-.68-1.33-3.68-4.28-4.98-2.56l-4.81,6.37c2.39,2.95,5.35,3.53,8.07,3.43-.15.87-1.58,3.12-2.66,2.63-2.98-1.37-4.99-3.71-7.53-5.95,2.33-3.71,4.9-6.59,8.36-9.24,2.55,1.59,5.93,3.52,6.64,6.43.46,1.88-2.52,4.01-3.76,4.88Z"/>
    <path class="cls-3" d="M284.01,276.08c.31-3.17-.23-6.12-1.16-8.95,1.55.81,4.47,2.69,4.64,4.6.21,2.37-2.83,3.09-3.48,4.35Z"/>
    <path class="cls-3" d="M64.54,130.93c1.23-2.41,2.5-5.1,4.17-7.13.27,1.65.29,3.23-.37,5.04-.48,1.29-1.88,2.35-3.79,2.09Z"/>
    <path class="cls-3" d="M68.07,148.01c-.67,1.35-.51,3.41-1.85,4.47-1.2-.72-1.15-1.92-.94-2.66.38-1.33,1.44-1.95,2.78-1.81Z"/>
    <path class="cls-3" d="M280.17,280.11l-4.01,4.04c-.4-1.15-.38-2.41.23-3.17.83-1.03,2.37-1.22,3.78-.87Z"/>
    <path class="cls-4" d="M298.03,194.97l-.24-4.08c.51.46,1.1,1.16,1.23,1.71.23.97,0,2.09-.99,2.37Z"/>
    <path class="cls-3" d="M331.93,184.12c-1-.44-.74-1.49-.77-2.24.54-.11,1.51-.01,1.78.69.19.5-.7,1.28-1.01,1.55Z"/>
    <path class="cls-3" d="M282.19,267.04c-.53-.07-.92-.68-1.18-1.22l1.18,1.22Z"/>
    <path class="cls-1" d="M84.82,256.98c.43.94-1.67,2.82-2.54,2.87s-2.33-.89-2.97-2.19l-3.97-8.01c-4.48-12.2-7.9-24.54-9.26-37.58-.61-5.78.53-11.33-.52-17.1-.28-1.57.12-3.2,1.11-3.8.78-.48,2.82-.56,3.71-.07,1.22.66.48,8.98,1.43,18.93,1.59,16.6,6.25,31.99,13.02,46.95Z"/>
    <path class="cls-1" d="M184.98,60.02v4.96c-14.17,1.01-28.29,3.17-42.08,8.02-1.88.66-3.82-2.21-3.28-3.44,1.52-3.47,23.15-8.01,33.49-9.39l11.87-.15Z"/>
    <path class="cls-1" d="M239.04,303.9c-4.49,2.07-8.92,3.7-13.91,3.15-1.66-3.89-1.42-7.7-.99-12.16l12.33-3.84c2.13,4.3,2.69,8.31,2.58,12.85Z"/>
    <path class="cls-1" d="M144.34,315.22c1.78.38,1.77,2.39,1.76,3.22-.05,7.26-13.79-2.34-22.12-8.43-5.95-4.35-16.4-10.28-12.07-13.59.81-.61,2.23-.62,3.41.24l10.38,7.53c5.16,3.75,14.77,10.2,18.63,11.02Z"/>
    <path class="cls-1" d="M210.79,332.2c-1,1.59-5.7,1.44-7.27.39-1.3-.87-1.02-4.6,0-5.47,1.33-1.13,3.92-1.43,5.89-1,1.65.36,2.7,3.97,1.38,6.09Z"/>
    <circle class="cls-1" cx="201.25" cy="198.55" r="18.87"/>
  </g>
</svg>